<?xml version="1.0" standalone="no"?>
<!DOCTYPE svg PUBLIC "-//W3C//DTD SVG 20010904//EN"
 "http://www.w3.org/TR/2001/REC-SVG-20010904/DTD/svg10.dtd">
<svg version="1.0" xmlns="http://www.w3.org/2000/svg"
 width="482.000000pt" height="482.000000pt" viewBox="0 0 482.000000 482.000000"
 preserveAspectRatio="xMidYMid meet">
<metadata>
Created by potrace 1.14, written by Peter Selinger 2001-2017
</metadata>
<g transform="translate(0.000000,482.000000) scale(0.100000,-0.100000)"
fill="#000000" stroke="none">
<path d="M1390 4380 l0 -330 771 0 771 0 35 -35 35 -35 -7 -312 c-4 -172 -13
-673 -20 -1113 -15 -896 -9 -832 -95 -998 -87 -171 -208 -312 -307 -360 -24
-12 -43 -25 -43 -30 0 -18 248 0 340 24 214 55 412 204 495 372 69 140 65 28
65 1665 l0 1482 -1020 0 -1020 0 0 -330z"/>
<path d="M3630 3128 c0 -869 -4 -1405 -10 -1437 -25 -130 -118 -295 -235 -416
-82 -84 -153 -136 -260 -188 -370 -181 -844 -127 -1195 135 -147 110 -330 316
-435 488 -20 33 -42 59 -47 58 -6 -2 -77 -111 -158 -243 l-148 -239 66 -86
c158 -204 383 -435 552 -566 220 -171 475 -293 716 -340 121 -24 377 -24 489
0 274 59 505 184 708 384 134 131 213 255 274 429 l27 78 7 660 c4 363 7 978
8 1366 l1 707 -171 288 c-95 159 -176 293 -180 299 -5 5 -9 -603 -9 -1377z"/>
<path d="M1460 3860 c0 -5 56 -101 124 -212 l124 -203 551 -3 551 -2 0 215 0
215 -675 0 c-428 0 -675 -4 -675 -10z"/>
<path d="M580 1684 c-73 -121 -135 -222 -137 -226 -2 -5 126 -8 284 -8 l289 0
138 216 c76 118 137 217 135 219 -2 2 -133 6 -290 10 l-285 8 -134 -219z"/>
<path d="M456 1193 c177 -319 509 -612 879 -775 129 -57 258 -104 351 -127
111 -28 330 -63 368 -59 l31 4 -49 23 c-120 57 -293 173 -469 314 -161 129
-423 401 -602 625 l-50 62 -248 0 -249 0 38 -67z"/>
</g>
</svg>
